<?xml version="1.0" encoding="utf-8"?>
<!-- Generator: Adobe Illustrator 19.0.0, SVG Export Plug-In . SVG Version: 6.00 Build 0)  -->
<svg version="1.1" id="Layer_1" xmlns="http://www.w3.org/2000/svg" xmlns:xlink="http://www.w3.org/1999/xlink" x="0px" y="0px"
	 viewBox="-230 360.4 149.5 72.6" style="enable-background:new -230 360.4 149.5 72.6;" xml:space="preserve">
<style type="text/css">
	.st0{enable-background:new    ;}
	.st1{fill:#2B3990;}
	.st2{fill:#EE2A7B;}
</style>
<g id="XMLID_79_">
	<g id="XMLID_52_">
		<g id="XMLID_53_" class="st0">
			<path class="st1" d="M-140.8,431.8l-0.4-2.4h-0.1c-1.6,1.9-4,2.9-6.9,2.9c-4.9,0-7.7-3.5-7.7-7.3c0-6.2,5.6-9.2,14.1-9.2v-0.3
				c0-1.3-0.7-3.1-4.4-3.1c-2.4,0-5,0.8-6.6,1.8l-1.4-4.8c1.7-0.9,4.9-2.1,9.3-2.1c8,0,10.5,4.7,10.5,10.3v8.3
				c0,2.3,0.1,4.5,0.3,5.8H-140.8z M-141.7,420.4c-3.9,0-7,0.9-7,3.8c0,1.9,1.3,2.8,2.9,2.8c1.9,0,3.4-1.2,3.9-2.7
				c0.1-0.4,0.1-0.8,0.1-1.3V420.4z"/>
			<path class="st1" d="M-114.9,431.8l-0.4-2.4h-0.1c-1.6,1.9-4,2.9-6.9,2.9c-4.9,0-7.7-3.5-7.7-7.3c0-6.2,5.6-9.2,14.1-9.2v-0.3
				c0-1.3-0.7-3.1-4.4-3.1c-2.5,0-5,0.8-6.6,1.8l-1.4-4.8c1.7-0.9,4.9-2.1,9.3-2.1c8,0,10.5,4.7,10.5,10.3v8.3
				c0,2.3,0.1,4.5,0.3,5.8H-114.9z M-115.8,420.4c-3.9,0-7,0.9-7,3.8c0,1.9,1.3,2.8,2.9,2.8c1.9,0,3.4-1.2,3.9-2.7
				c0.1-0.4,0.1-0.8,0.1-1.3V420.4z"/>
			<path class="st1" d="M-102.2,424.1c2,1,5.1,2.1,8.3,2.1c3.4,0,5.2-1.4,5.2-3.6c0-2.1-1.6-3.2-5.5-4.7c-5.5-1.9-9.1-4.9-9.1-9.8
				c0-5.6,4.7-9.9,12.5-9.9c3.7,0,6.5,0.8,8.4,1.7l-1.7,6c-1.3-0.6-3.7-1.6-6.9-1.6c-3.2,0-4.8,1.5-4.8,3.2c0,2.1,1.9,3,6.1,4.7
				c5.8,2.2,8.6,5.2,8.6,9.8c0,5.5-4.3,10.2-13.3,10.2c-3.8,0-7.5-1-9.4-2L-102.2,424.1z"/>
		</g>
	</g>
	<g id="XMLID_32_">
		<path class="st2" d="M-192.9,360.9V381c0,1.2,1.4,1.9,2.3,1.1c3.7-3.2,8.3-7.7,12.5-3c0.9,1.1,1.5,2.4,1.6,3.8
			c1.6,19-11.7,24.3-15.5,26.2c-0.6,0.3-1,0.9-1,1.6v0.7c0,1.2,1.1,2.1,2.3,1.7c1.7-0.5,4.1-1.3,6.5-2.5c5.7-3.1,8.6-7.4,8.6-12.7
			c0-0.4,0.2-0.8,0.6-0.9c0.6-0.2,1.2,0.3,1.2,0.8c0,6-3.3,11-9.6,14.4c-2.9,1.6-5.9,2.5-7.8,2.9c-1,0.3-1.8,1.2-1.8,2.3l0,0
			c0,1.6,1.5,2.7,3,2.2c2.3-0.7,5.5-1.8,8.7-3.6c7.7-4.2,11.6-9.9,11.6-16.9c0-0.4,0.3-0.9,0.7-0.9c0.6-0.1,1,0.3,1,0.9
			c0,7.6-4.3,14-12.5,18.5c-4.2,2.3-8.6,3.6-10.9,4.2c-1,0.2-1.7,1.1-1.7,2.1l0,0c0,1.4,1.3,2.4,2.7,2.1c2.8-0.6,7.3-1.9,11.8-4.3
			c9.5-5.1,14.3-12.5,14.3-22.2c0-0.4,0.3-0.9,0.7-0.9c0.6-0.1,1,0.3,1,0.9c0,10.3-5.3,18.5-15.3,23.8c-5.5,2.9-11.2,4.3-13.8,4.7
			c-0.9,0.2-1.5,0.9-1.5,1.8l0,0c0,1,0.9,1.9,1.9,1.8c18.7-1,33.5-16.5,33.5-35.4C-157.4,376.8-173.3,360.9-192.9,360.9z"/>
	</g>
	<g id="XMLID_23_">
		<path class="st2" d="M-193.8,360.9V381c0,1.2-1.4,1.9-2.3,1.1c-3.7-3.2-8.3-7.7-12.5-3c-0.9,1.1-1.5,2.4-1.6,3.8
			c-1.6,19,11.7,24.3,15.5,26.2c0.6,0.3,1,0.9,1,1.6v0.7c0,1.2-1.1,2.1-2.3,1.7c-1.7-0.5-4.1-1.3-6.5-2.5c-5.7-3.1-8.6-7.4-8.6-12.7
			c0-0.4-0.2-0.8-0.6-0.9c-0.6-0.2-1.2,0.3-1.2,0.8c0,6,3.3,11,9.6,14.4c2.9,1.6,5.9,2.5,7.8,2.9c1,0.3,1.8,1.2,1.8,2.3l0,0
			c0,1.6-1.5,2.7-3,2.2c-2.3-0.7-5.5-1.8-8.7-3.6c-7.7-4.2-11.6-9.9-11.6-16.9c0-0.4-0.3-0.9-0.7-0.9c-0.6-0.1-1,0.3-1,0.9
			c0,7.6,4.3,14,12.5,18.5c4.2,2.3,8.6,3.6,10.9,4.2c1,0.2,1.7,1.1,1.7,2.1l0,0c0,1.4-1.3,2.4-2.7,2.1c-2.8-0.6-7.3-1.9-11.8-4.3
			c-9.7-4.9-14.5-12.4-14.5-22.1c0-0.4-0.3-0.9-0.7-0.9c-0.6-0.1-1,0.3-1,0.9c0,10.3,5.3,18.5,15.3,23.8c5.5,2.9,11.2,4.3,13.8,4.7
			c0.9,0.2,1.5,0.9,1.5,1.8l0,0c0,1-0.9,1.9-1.9,1.8c-18.8-1-33.6-16.4-33.6-35.3C-229.2,376.8-213.4,360.9-193.8,360.9z"/>
	</g>
</g>
</svg>
