<?xml version="1.0" encoding="utf-8"?>
<!-- Generator: Adobe Illustrator 19.0.0, SVG Export Plug-In . SVG Version: 6.00 Build 0)  -->
<svg version="1.1" id="Layer_1" xmlns="http://www.w3.org/2000/svg" xmlns:xlink="http://www.w3.org/1999/xlink" x="0px" y="0px"
	 viewBox="0 0 149.5 72.6" enable-background="new 0 0 149.5 72.6" xml:space="preserve">
<g id="XMLID_79_">
	<g id="XMLID_52_">
		
			<text id="XMLID_53_" transform="matrix(1 0 0 1 72.5773 71.3523)" fill="#2B3990" font-family="'MyriadPro-Bold'" font-size="48.9989px">aaS</text>
	</g>
	<path id="XMLID_32_" fill="#EE2A7B" d="M37.1,0.5l0,20.1c0,1.2,1.4,1.9,2.3,1.1c3.7-3.2,8.3-7.7,12.5-3c0.9,1.1,1.5,2.4,1.6,3.8
		c1.6,19-11.7,24.3-15.5,26.2c-0.6,0.3-1,0.9-1,1.6l0,0.7c0,1.2,1.1,2.1,2.3,1.7c1.7-0.5,4.1-1.3,6.5-2.5c5.7-3.1,8.6-7.4,8.6-12.7
		c0-0.4,0.2-0.8,0.6-0.9c0.6-0.2,1.2,0.3,1.2,0.8c0,6-3.3,11-9.6,14.4c-2.9,1.6-5.9,2.5-7.8,2.9c-1,0.3-1.8,1.2-1.8,2.3v0
		c0,1.6,1.5,2.7,3,2.2c2.3-0.7,5.5-1.8,8.7-3.6c7.7-4.2,11.6-9.9,11.6-16.9c0-0.4,0.3-0.9,0.7-0.9c0.6-0.1,1,0.3,1,0.9
		c0,7.6-4.3,14-12.5,18.5c-4.2,2.3-8.6,3.6-10.9,4.2c-1,0.2-1.7,1.1-1.7,2.1v0c0,1.4,1.3,2.4,2.7,2.1c2.8-0.6,7.3-1.9,11.8-4.3
		c9.5-5.1,14.3-12.5,14.3-22.2c0-0.4,0.3-0.9,0.7-0.9c0.6-0.1,1,0.3,1,0.9c0,10.3-5.3,18.5-15.3,23.8c-5.5,2.9-11.2,4.3-13.8,4.7
		c-0.9,0.2-1.5,0.9-1.5,1.8l0,0c0,1,0.9,1.9,1.9,1.8c18.7-1,33.5-16.5,33.5-35.4C72.6,16.4,56.7,0.5,37.1,0.5z"/>
	<path id="XMLID_23_" fill="#EE2A7B" d="M36.2,0.5l0,20.1c0,1.2-1.4,1.9-2.3,1.1c-3.7-3.2-8.3-7.7-12.5-3c-0.9,1.1-1.5,2.4-1.6,3.8
		c-1.6,19,11.7,24.3,15.5,26.2c0.6,0.3,1,0.9,1,1.6l0,0.7c0,1.2-1.1,2.1-2.3,1.7c-1.7-0.5-4.1-1.3-6.5-2.5
		c-5.7-3.1-8.6-7.4-8.6-12.7c0-0.4-0.2-0.8-0.6-0.9c-0.6-0.2-1.2,0.3-1.2,0.8c0,6,3.3,11,9.6,14.4c2.9,1.6,5.9,2.5,7.8,2.9
		c1,0.3,1.8,1.2,1.8,2.3v0c0,1.6-1.5,2.7-3,2.2c-2.3-0.7-5.5-1.8-8.7-3.6c-7.7-4.2-11.6-9.9-11.6-16.9c0-0.4-0.3-0.9-0.7-0.9
		c-0.6-0.1-1,0.3-1,0.9c0,7.6,4.3,14,12.5,18.5c4.2,2.3,8.6,3.6,10.9,4.2c1,0.2,1.7,1.1,1.7,2.1v0c0,1.4-1.3,2.4-2.7,2.1
		c-2.8-0.6-7.3-1.9-11.8-4.3C12.2,56.4,7.4,48.9,7.4,39.2c0-0.4-0.3-0.9-0.7-0.9c-0.6-0.1-1,0.3-1,0.9c0,10.3,5.3,18.5,15.3,23.8
		c5.5,2.9,11.2,4.3,13.8,4.7c0.9,0.2,1.5,0.9,1.5,1.8l0,0c0,1-0.9,1.9-1.9,1.8C15.6,70.3,0.8,54.9,0.8,36
		C0.8,16.4,16.6,0.5,36.2,0.5z"/>
</g>
</svg>
