<?xml version="1.0" encoding="utf-8"?>
<!-- Generator: Adobe Illustrator 19.0.0, SVG Export Plug-In . SVG Version: 6.00 Build 0)  -->
<svg version="1.1" id="Layer_1" xmlns="http://www.w3.org/2000/svg" xmlns:xlink="http://www.w3.org/1999/xlink" x="0px" y="0px"
	 viewBox="0 0 916 688" enable-background="new 0 0 916 688" xml:space="preserve">
<path id="XMLID_10_" opacity="5.000000e-002" fill="#EE2A7B" d="M455.6,67.4l-96.9-50.8C310-8.9,249.9,4.8,217,49L116.8,183.7
	c-5.5,7.4-11.8,14-19,19.9l-53.2,43.5c-48.3,39.5-54.9,110.8-14.8,158.5l79.1,94.1c33.3,39.7,89.5,51.3,135.8,28l0,0
	c44.3-22.2,97.9-12.7,131.8,23.5l91.4,97.5c33.5,35.8,86.4,45.6,130.5,24.1l13.4-6.5c31.7-15.4,54.3-44.8,61-79.4l16.9-87.2
	c9.4-48.7,49.7-85.4,99.1-90.1l22.4-2.2c83.7-8.1,128.9-102,83-172.5l-11.7-17.9c-3.7-5.7-6.9-11.8-9.6-18.1L822.1,77.2
	c-24-57.7-90.7-84.5-148-59.5L552.4,70.9C521.3,84.5,485.7,83.2,455.6,67.4z"/>
</svg>
